<svg xmlns="http://www.w3.org/2000/svg" viewBox="0 0 64 64"><defs><clipPath id="c"><rect width="64" height="64" rx="12" ry="12"/></clipPath></defs><g clip-path="url(#c)"><rect width="64" height="64" rx="12" ry="12" fill="#0d0f12"/><line x1="9" y1="24" x2="55" y2="40" stroke="#9aa0a8" stroke-width="3.0" stroke-linecap="round"/><line x1="13" y1="51" x2="49" y2="11" stroke="#9aa0a8" stroke-width="3.0" stroke-linecap="round"/><line x1="8" y1="41" x2="54" y2="47" stroke="#9aa0a8" stroke-width="3.0" stroke-linecap="round"/><line x1="22" y1="9" x2="38" y2="57" stroke="#9aa0a8" stroke-width="3.0" stroke-linecap="round"/><path d="M 12.00 53.00 L 12.08 52.89 L 12.15 52.78 L 12.23 52.67 L 12.30 52.56 L 12.38 52.45 L 12.46 52.34 L 12.53 52.23 L 12.61 52.12 L 12.69 52.02 L 12.77 51.91 L 12.85 51.81 L 12.93 51.71 L 13.01 51.60 L 13.09 51.50 L 13.17 51.40 L 13.25 51.30 L 13.33 51.20 L 13.41 51.10 L 13.49 51.00 L 13.57 50.90 L 13.65 50.80 L 13.74 50.71 L 13.82 50.61 L 13.90 50.51 L 13.99 50.42 L 14.07 50.32 L 14.16 50.23 L 14.24 50.14 L 14.33 50.05 L 14.41 49.95 L 14.50 49.86 L 14.58 49.77 L 14.67 49.68 L 14.75 49.59 L 14.84 49.51 L 14.93 49.42 L 15.02 49.33 L 15.10 49.24 L 15.19 49.16 L 15.28 49.07 L 15.37 48.99 L 15.46 48.90 L 15.55 48.82 L 15.64 48.73 L 15.73 48.65 L 15.82 48.57 L 15.91 48.49 L 16.00 48.41 L 16.09 48.32 L 16.18 48.24 L 16.27 48.16 L 16.36 48.09 L 16.46 48.01 L 16.55 47.93 L 16.64 47.85 L 16.73 47.77 L 16.83 47.70 L 16.92 47.62 L 17.01 47.54 L 17.11 47.47 L 17.20 47.39 L 17.30 47.32 L 17.39 47.24 L 17.49 47.17 L 17.58 47.10 L 17.68 47.03 L 17.77 46.95 L 17.87 46.88 L 17.97 46.81 L 18.06 46.74 L 18.16 46.67 L 18.26 46.60 L 18.35 46.53 L 18.45 46.46 L 18.55 46.39 L 18.65 46.32 L 18.74 46.25 L 18.84 46.18 L 18.94 46.12 L 19.04 46.05 L 19.14 45.98 L 19.24 45.91 L 19.34 45.85 L 19.44 45.78 L 19.54 45.72 L 19.64 45.65 L 19.74 45.59 L 19.84 45.52 L 19.94 45.46 L 20.04 45.39 L 20.14 45.33 L 20.24 45.26 L 20.35 45.20 L 20.45 45.14 L 20.55 45.08 L 20.65 45.01 L 20.75 44.95 L 20.86 44.89 L 20.96 44.83 L 21.06 44.77 L 21.17 44.70 L 21.27 44.64 L 21.37 44.58 L 21.48 44.52 L 21.58 44.46 L 21.68 44.40 L 21.79 44.34 L 21.89 44.28 L 22.00 44.22 L 22.10 44.16 L 22.21 44.10 L 22.31 44.04 L 22.42 43.99 L 22.52 43.93 L 22.63 43.87 L 22.74 43.81 L 22.84 43.75 L 22.95 43.69 L 23.05 43.63 L 23.16 43.58 L 23.27 43.52 L 23.37 43.46 L 23.48 43.40 L 23.59 43.35 L 23.69 43.29 L 23.80 43.23 L 23.91 43.17 L 24.02 43.12 L 24.12 43.06 L 24.23 43.00 L 24.34 42.95 L 24.45 42.89 L 24.56 42.83 L 24.66 42.78 L 24.77 42.72 L 24.88 42.66 L 24.99 42.61 L 25.10 42.55 L 25.21 42.49 L 25.32 42.44 L 25.43 42.38 L 25.54 42.32 L 25.65 42.27 L 25.75 42.21 L 25.86 42.16 L 25.97 42.10 L 26.08 42.04 L 26.19 41.99 L 26.30 41.93 L 26.41 41.87 L 26.52 41.82 L 26.63 41.76 L 26.74 41.70 L 26.86 41.65 L 26.97 41.59 L 27.08 41.53 L 27.19 41.48 L 27.30 41.42 L 27.41 41.36 L 27.52 41.30 L 27.63 41.25 L 27.74 41.19 L 27.85 41.13 L 27.96 41.07 L 28.08 41.02 L 28.19 40.96 L 28.30 40.90 L 28.41 40.84 L 28.52 40.78 L 28.63 40.73 L 28.75 40.67 L 28.86 40.61 L 28.97 40.55 L 29.08 40.49 L 29.19 40.43 L 29.30 40.37 L 29.42 40.31 L 29.53 40.25 L 29.64 40.19 L 29.75 40.13 L 29.86 40.07 L 29.98 40.01 L 30.09 39.95 L 30.20 39.89 L 30.31 39.83 L 30.43 39.77 L 30.54 39.70 L 30.65 39.64 L 30.76 39.58 L 30.88 39.52 L 30.99 39.45 L 31.10 39.39 L 31.21 39.33 L 31.33 39.26 L 31.44 39.20 L 31.55 39.14 L 31.66 39.07 L 31.78 39.01 L 31.89 38.94 L 32.00 38.88 L 32.11 38.81 L 32.22 38.74 L 32.34 38.68 L 32.45 38.61 L 32.56 38.54 L 32.67 38.48 L 32.79 38.41 L 32.90 38.34 L 33.01 38.27 L 33.12 38.20 L 33.24 38.13 L 33.35 38.06 L 33.46 37.99 L 33.57 37.92 L 33.69 37.85 L 33.80 37.78 L 33.91 37.71 L 34.02 37.64 L 34.14 37.56 L 34.25 37.49 L 34.36 37.42 L 34.47 37.34 L 34.58 37.27 L 34.70 37.20 L 34.81 37.12 L 34.92 37.04 L 35.03 36.97 L 35.14 36.89 L 35.25 36.82 L 35.37 36.74 L 35.48 36.66 L 35.59 36.58 L 35.70 36.50 L 35.81 36.42 L 35.92 36.34 L 36.04 36.26 L 36.15 36.18 L 36.26 36.10 L 36.37 36.02 L 36.48 35.94 L 36.59 35.85 L 36.70 35.77 L 36.81 35.69 L 36.92 35.60 L 37.03 35.52 L 37.14 35.43 L 37.26 35.34 L 37.37 35.26 L 37.48 35.17 L 37.59 35.08 L 37.70 34.99 L 37.81 34.90 L 37.92 34.81 L 38.03 34.72 L 38.14 34.63 L 38.25 34.54 L 38.35 34.45 L 38.46 34.35 L 38.57 34.26 L 38.68 34.16 L 38.79 34.07 L 38.90 33.97 L 39.01 33.88 L 39.12 33.78 L 39.23 33.68 L 39.34 33.58 L 39.44 33.49 L 39.55 33.39 L 39.66 33.29 L 39.77 33.18 L 39.88 33.08 L 39.98 32.98 L 40.09 32.88 L 40.20 32.77 L 40.31 32.67 L 40.41 32.56 L 40.52 32.46 L 40.63 32.35 L 40.73 32.24 L 40.84 32.13 L 40.95 32.02 L 41.05 31.91 L 41.16 31.80 L 41.26 31.69 L 41.37 31.58 L 41.48 31.47 L 41.58 31.35 L 41.69 31.24 L 41.79 31.12 L 41.90 31.01 L 42.00 30.89 L 42.11 30.77 L 42.21 30.65 L 42.32 30.53 L 42.42 30.41 L 42.52 30.29 L 42.63 30.17 L 42.73 30.05 L 42.83 29.92 L 42.94 29.80 L 43.04 29.67 L 43.14 29.54 L 43.25 29.42 L 43.35 29.29 L 43.45 29.16 L 43.55 29.03 L 43.65 28.90 L 43.76 28.77 L 43.86 28.63 L 43.96 28.50 L 44.06 28.37 L 44.16 28.23 L 44.26 28.09 L 44.36 27.96 L 44.46 27.82 L 44.56 27.68 L 44.66 27.54 L 44.76 27.40 L 44.86 27.26 L 44.96 27.11 L 45.06 26.97 L 45.16 26.82 L 45.26 26.68" fill="none" stroke="#ffffff" stroke-width="6.2" stroke-linecap="butt" stroke-linejoin="round"/><polygon points="49.2,19.6 50.3,31.1 39.8,26.3" fill="#ffffff"/><circle cx="12" cy="53" r="4.6" fill="#9aa0a8"/></g></svg>